<svg clip-rule="evenodd" fill-rule="evenodd" stroke-linecap="round" stroke-linejoin="round" stroke-miterlimit="1.5" viewBox="0 0 1024 1024" xmlns="http://www.w3.org/2000/svg"><path d="m0 0h1024v1024h-1024z" fill="none"/><g transform="matrix(1.57407 0 0 1.57407 -168 -340)"><path d="m288.263 432h-.263v-12h36l-36-156s64.524-48 144-48 144 48 144 48l-36 156h36v24h-29.167l17.308 420h-266.823l19.849-420h-28.904z"/><path d="m348 276v134h-15l-30.288-134z" fill="#73888c"/><path d="m348 276v134h-15l-30.288-134z" fill="#73888c" transform="matrix(-1 0 0 1 864 0)"/><path d="m518.4 276h-172.8l14.4 134h144z" fill="#73888c" transform="matrix(.833333 0 0 1 72 0)"/><g fill="none" stroke="#ebebeb" stroke-opacity=".76"><path d="m384 282.981-11.795 31.633" stroke-width=".64" transform="matrix(.999303 .0373399 -.0373399 .999303 11.4222 -13.987)"/><path d="m384 282.981-11.795 31.633" stroke-width=".93" transform="matrix(.682176 .0254901 -.0254901 .682176 133.784 85.4741)"/><path d="m384 282.981-11.795 31.633" stroke-width=".64" transform="matrix(-.999303 -.0373399 .0373399 -.999303 848.723 701.427)"/><path d="m384 282.981-11.795 31.633" stroke-width=".93" transform="matrix(-.682176 -.0254901 .0254901 -.682176 726.362 601.966)"/></g></g></svg>