<svg height="358" width="864" xmlns="http://www.w3.org/2000/svg"><g transform="matrix(2.5964 0 0 2.5964 -88.247957 -1761.1929)"><path d="m62.777261 682.66638s-22.84339 99.66531-22.84339 99.66531h60.104559 105.67884 54.96371c-6.54796-.57145-11.71765-2.87011-14.79791-7.06027-.57133-.77509-1.04346-1.60999-1.45715-2.48348-.26277-.64359-.5098-1.293-.75945-1.94971-.65682-2.08863-.91869-4.40613-.80043-6.87568.32842-6.883 3.5581-15.07028 9.15381-23.64386 5.94375-9.11134 14.55819-18.66102 25.22417-27.52283 2.39067-1.98475 4.86262-3.94473 7.45021-5.84947 3.19852-2.35311 6.4217-4.52039 9.64637-6.54715 11.881-7.48001 23.73254-12.71397 34.23437-15.37255-10.03552 3.27397-21.3098 8.83212-32.4487 16.39877-.40067.27054-.79632.5477-1.19049.82098-6.18016 4.28216-11.77917 8.82996-16.66554 13.42273-15.72323 14.78398-24.0338 30.10322-20.25732 39.07804.26928.61733.59027 1.20681.96458 1.76513 4.05888 5.97 14.11814 7.00193 26.86612 3.7969.86698-.21666 1.73396-.4622 2.62708-.71835 4.07201-1.17554 8.39527-2.76338 12.8482-4.72051 1.07052-.47293 2.15256-.95887 3.24282-1.4778.11164-.0525.21666-.10502.3283-.16415 14.05501-6.98345 24.85648-15.01891 27.19453-19.84684.51232-1.05019.63548-1.94559.28732-2.64763-1.66821-3.38242-13.34145-1.09733-27.48185 5.02838-1.13615.49267-2.28554.99951-3.44806 1.53933.94574-.87805 1.93019-1.75953 2.93495-2.62708 1.60257-1.38055 3.26176-2.73051 5.02848-4.0638 2.76498-2.09376 5.56032-3.98662 8.31229-5.66465 12.88587-9.72159 19.40027-18.91764 18.04072-22.33031-.25615-.64301-.80122-1.08524-1.64195-1.35464-2.68621-.85442-7.58902.16541-13.5459 2.60665-4.91274 2.01501-10.55524 5.00338-16.27572 8.72277 0 0-.77988.51312-.77988.51312s-.14372.0821-.14372.0821-2.75013 1.82665-2.75013 1.82665 1.58031-2.89385 1.58031-2.89385c2.34467-4.2921 6.16384-8.77026 10.91882-12.93028 3.48744-3.04157 7.47167-5.90734 11.76034-8.41491 1.6222-.94974 3.24201-1.83178 4.86422-2.62708 1.6617-.81184 3.32409-1.53328 4.9463-2.17561 4.71308-1.86387 9.89054-4.21767 13.81404-4.52565-.3573 0-11.69996 1.22131-11.69996 1.22131h-37.14877-163.80326-73.075879zm177.933719.14371c-.64359 9.82331 1.26103 24.21153 5.58258 40.18623.76846 2.84249 1.60497 5.73531 2.52446 8.66124.57144 1.80679 1.16092 3.58527 1.76512 5.33624-.35467.52145-.71173 1.03969-1.04677 1.55988-5.39206 8.26343-8.54378 16.07287-9.3385 22.86386-2.27904-7.63171-3.99473-15.99091-4.96685-24.85477-.27579-2.53965-.49165-5.05098-.63616-7.53229-1.06401-18.02383 1.28888-34.36245 6.11612-46.22039zm-107.60809 12.78645c.12294-.003.24417 0 .3694 0h24.28013c2.07539 0 3.68036.38903 4.82313 1.16994 1.13615.78548 1.56228 1.80154 1.29299 3.03757 0 0-2.89385 13.07388-2.89385 13.07388h-8.55862s2.81178-12.72492 2.81178-12.72492h-21.42715s-7.73764 34.97305-7.73764 34.97305-2.79135 12.6635-2.79135 12.6635h21.40671s.0206-.0821.0206-.0821 4.28958-19.37493 4.28958-19.37493h-10.05685s.96469-4.37155.96469-4.37155c0-.00011 18.61537 0 18.61537 0 0-.00011-5.33624 24.1774-5.33624 24.1774-.0723.34417-.19874.65592-.36951.9647-.44006.80122-1.20761 1.4875-2.27812 2.05244-1.48431.78148-3.26085 1.16982-5.33636 1.16982h-24.25947c-2.07539 0-3.68036-.38834-4.82324-1.16982-1.13615-.7816-1.56884-1.77974-1.29299-3.01714 0 0 10.69314-48.33436 10.69314-48.33436.27579-1.23603 1.13615-2.25209 2.62696-3.03757.0526-.0283.11176-.0347.16427-.0615 1.3608-.6816 2.95778-1.0648 4.80269-1.10841zm38.05183 0c-.00012 0 30.5604 0 30.5604 0 2.04913 0 3.65981.38903 4.8027 1.16994 1.14927.78548 1.58933 1.80154 1.31354 3.03757 0 0-5.70575 25.77837-5.70575 25.77837-.26928 1.22816-1.15019 2.23018-2.64763 3.01703-1.49744.78947-3.26005 1.19037-5.31581 1.19037h-22.20714s-4.28947 19.35427-4.28947 19.35427-.69781 3.18128-.69781 3.18128h-8.37392s.63628-2.87342.63628-2.87342 11.92461-53.85541 11.92461-53.85541zm42.21812 0h8.37381s-9.48211 42.83397-9.48211 42.83397-2.07299 9.35905-2.07299 9.35905h20.03165c.21015 1.53614.45557 3.045.71835 4.53581h-30.12948s2.38074-10.75466 2.38074-10.75466 10.18003-45.97417 10.18003-45.97417zm-34.84999 4.55647s-5.56214 25.08045-5.56214 25.08045h20.87316s5.54149-25.08045 5.54149-25.08045zm-44.50903 59.19428c.082-.003.16381 0 .24634 0 .972 0 1.82094.17065 2.50391.49256.72909.34154 1.25042.84883 1.53934 1.51879.28241.6502.35626 1.38819.20524 2.19604 0 0-.0615.30787-.0615.30787h-2.40129c-.00011 0 .0204-.28732.0204-.28732.0621-.56448-.008-1.0083-.22567-1.31354-.0284-.0382-.0696-.0888-.10274-.12317-.0541-.0554-.1355-.11849-.20513-.16415-.33606-.21175-.86161-.32841-1.53933-.32841-.89986 0-1.57221.15673-2.0319.47201-.44667.30867-.72908.65352-.82098 1.06732-.092.4203.059.64119.16415.75933.003.003.0166.0169.0205.0205.1331.11335.59519.37933 2.0319.71836 1.30041.31528 2.16157.59849 2.64763.84152.73559.3743 1.2495.85956 1.51878 1.45714.26929.5912.32842 1.28318.16415 2.0319-.16415.72909-.53605 1.40144-1.08775 2.0319-.54507.63046-1.23877 1.12964-2.07299 1.4778-.82748.34154-1.73544.53355-2.66806.53355-1.18227 0-2.13132-.17888-2.87342-.53355-.77498-.36779-1.33409-.94825-1.66239-1.70359-.31529-.73548-.38263-1.5705-.20536-2.48337 0 0 .0616-.28732.0616-.28732h2.36031s-.0205.28732-.0205.28732c-.0591.54507-.0008.98513.1436 1.31354.13801.31529.40067.57635.82098.77988.44667.21678 1.00487.32842 1.64195.32842.57144 0 1.09357-.096 1.55988-.26677.45969-.16427.82509-.38093 1.08775-.65683.25616-.27579.40638-.56733.47202-.88251.0657-.28241.0501-.52133-.0615-.71835-.12477-.21015-.37191-.39656-.75945-.55409 0-.00012-2.01135-.5953-2.01135-.5953-1.12302-.28241-1.87916-.5517-2.31921-.82098-.5977-.35456-1.02862-.80945-1.25202-1.35452-.22328-.53857-.24702-1.13547-.10251-1.78567.15103-.69621.48675-1.35863 1.00568-1.94971.52544-.5977 1.2035-1.06652 2.01135-1.37518.71424-.2678 1.46582-.42488 2.25757-.45147zm21.55043.041c.1299-.01.25205 0 .38994 0 0 0 1.47769.16415 1.47769.16415s.49257.0411.49257.0411c.00011 0-.71825 1.82665-.71825 1.82665s-.14371.28732-.14371.28732-1.12885-.10262-1.12885-.10262c-.33332 0-.57817.0515-.7389.16427-.0106.008-.0312.0324-.041.041-.0216.0189-.0578.0518-.0821.0822-.0989.12957-.21917.36118-.30787.77989 0 0-.0427.17727-.0821.32841h1.76501s-.45147 2.0319-.45147 2.0319-1.2906 0-1.72403 0c-.13139.59107-1.74458 7.8196-1.74458 7.8196h-2.38086s1.54755-6.94612 1.74458-7.8196c-.40067 0-1.37507 0-1.37507 0s.45147-2.0319.45147-2.0319h1.35464c.0656-.28241.16414-.63628.16414-.63628.14452-.65683.29554-1.12884.49257-1.45726.2694-.45318.64941-.83239 1.12884-1.10829.39497-.22945.89438-.36666 1.45726-.41049zm5.6852.10262s-.62235 2.80036-.77988 3.5097h1.53922s-.45147 2.0319-.45147 2.0319-1.13216 0-1.53934 0c-.12476.5647-1.10829 4.9463-1.10829 4.9463s-.0821.52623-.0821.67726c.00012.005-.00045.0168 0 .0205.00034.002-.00045.0192 0 .0205.00057.001.0196-.0008.0204 0 0 0 .24633.0204.24633.0204s1.12885-.0821 1.12885-.0821-.12317 1.82665-.12317 1.82665.0205.32841.0205.32841-1.62141.1847-1.62141.1847c-.64359 0-1.11572-.10502-1.45726-.32841-.36117-.23641-.57133-.54998-.65671-.94404-.0131-.0723-.0411-.17739-.0411-.32841 0-.29554.0558-.79552.24634-1.6625 0 0 .86276-3.86506 1.04666-4.67941-.30867 0-1.12873 0-1.12873 0s.45147-2.0319.45147-2.0319h1.12884c.10513-.47293.47202-2.09354.47202-2.09354s1.90884-1.00567 1.90884-1.00567.77988-.41049.77988-.41049zm-75.631539.0821h9.23587s-.5131 2.29879-.5131 2.29879-6.16135 0-6.75245 0c-.10506.46631-.52622 2.35449-.67728 3.03757h5.84937s-.51311 2.29867-.51311 2.29867-5.25827 0-5.84937 0c-.12479.57144-1.25198 5.6441-1.25198 5.6441h-2.48343s2.95548-13.27913 2.95548-13.27913zm12.37608 3.24293c.09266-.0114.19392 0 .28731 0 .5911 0 1.13707.17979 1.66248.5541 0 0 .328389.22579.328389.22579s-1.272509 2.09342-1.272509 2.09342-.34892-.24634-.34892-.24634c-.25612-.16415-.53196-.24622-.82095-.24622-.24958 0-.4819.0887-.71834.24622-.24958.16427-.45811.38184-.61571.67738-.27585.50569-.47783 1.07211-.61575 1.68293 0 0-1.10832 5.04892-1.10832 5.04892h-2.38079s2.19611-9.8515 2.19611-9.8515h2.2166s-.07638.29874-.10264.41038c.10511-.0788.21591-.1871.30789-.24623.3181-.18983.65411-.30832.98515-.34885zm7.060299 0c.14335-.0109.28446 0 .43102 0 1.3398 0 2.35368.46951 3.01703 1.39562.41377.59758.63628 1.33649.63628 2.21659 0 .48595-.0599 1.00899-.18472 1.58032 0 0-.18472.71835-.18472.71835s-6.02097 0-6.6909 0c-.0131.1379-.0205.28572-.0205.41049 0 .51231.10511.91538.32838 1.21092.10612.14451.22914.27465.36944.36939.26454.1726.60601.26689 1.00572.26689.48599 0 .9129-.1339 1.31353-.38994.38091-.24303.74543-.63137 1.06726-1.16994h2.54499s-.22574.49256-.22574.49256c-.48603.98524-1.16417 1.7536-2.01139 2.29879-.84722.54507-1.85948.84141-2.97601.84141-1.45145 0-2.53185-.46951-3.20175-1.39562-.663349-.90636-.806199-2.15917-.451559-3.73538.354699-1.60257 1.062339-2.88324 2.093469-3.77647.92422-.80135 1.97295-1.24585 3.14021-1.33398zm10.69313 0c.14326-.0109.28446 0 .43092 0 1.33991 0 2.3538.46951 3.01714 1.39562.41379.59758.63616 1.33649.63616 2.21659 0 .47944-.0599.99495-.1847 1.55977 0 0-.18469.7389-.18469.7389s-6.02097 0-6.69087 0c-.007.092-.014.17488-.0205.26677-.005.0345.002.0869 0 .12317-.00019.006 0 .0148 0 .0205 0 .0985.0139.19543.0205.28732.0328.37442.13054.68719.30786.9236.0338.046.0655.10274.1026.14372.30081.32179.72656.49256 1.27251.49256.48602 0 .91945-.1339 1.3135-.38994.38104-.24303.74552-.63137 1.06732-1.16994h2.56544s-.24623.49256-.24623.49256c-.48606.98524-1.16412 1.7536-2.01135 2.29879-.84723.54507-1.85953.84141-2.976.84141-1.45149 0-2.53189-.46951-3.20178-1.39562-.43346-.59108-.63624-1.34391-.63624-2.23714 0-.1379.007-.28652.0205-.43104.0263-.34142.0788-.68628.16419-1.0672.35465-1.59595 1.0418-2.88324 2.07293-3.77647.92419-.80135 1.99344-1.24585 3.16076-1.33398zm29.12369 0c.14669-.0113.28161 0 .43104 0 1.36616 0 2.41613.46209 3.0991 1.37507.67657.91287.84072 2.14434.49267 3.69429-.26928 1.20852-.65842 2.18463-1.19048 2.89397-.53195.70933-1.21001 1.28888-2.01135 1.68293-.79461.39405-1.63614.59519-2.48337.59519-1.39242 0-2.42925-.47613-3.09921-1.39562-.43343-.58457-.65671-1.33728-.65671-2.23714 0-.48594.0533-1.00236.18469-1.58031.39405-1.76022 1.19859-3.10081 2.38075-3.96117.86778-.62647 1.82619-.98833 2.85287-1.06721zm36.06102 0c.17317-.0107.33344 0 .51311 0 .82749 0 1.47769.0837 1.97026.28732.52544.21016.89814.50729 1.10829.86196.20365.33492.30787.74632.30787 1.25201 0 0-.24622 1.49824-.24622 1.49824s-.45159 2.0319-.45159 2.0319c-.38754 1.73385-.47281 2.38405-.49256 2.62708-.0197.32841.0106.6485.10262.94415 0 0 .16415.53354.16415.53354h-2.42184s-.10262-.30786-.10262-.30786c-.0394-.14441-.0279-.3283-.041-.49257-.4598.28241-.92029.53286-1.33409.67726-.61082.21027-1.24459.32842-1.88829.32842-1.1164 0-1.9432-.29063-2.44239-.86196-.38081-.42031-.55409-.93422-.55409-1.51879 0-.22328.0296-.45478.0821-.6978.11164-.49919.31449-.96139.63628-1.37519.31528-.40718.68799-.7421 1.10829-.98513.40718-.24302.86116-.41539 1.33409-.53365 0 0 1.45726-.24623 1.45726-.24623 1.12302-.13139 1.96124-.29474 2.56544-.47213.0131-.0656.0411-.1436.0411-.1436.0952-.42259.0833-.74027-.0205-.90305-.008-.0105-.0324-.0321-.0411-.0411-.0221-.0236-.0562-.0607-.0821-.0821-.24702-.19543-.66824-.28732-1.23147-.28732-.63708 0-1.10829.10422-1.43659.30786-.32191.20354-.61985.57624-.88262 1.1083h-2.48337s.22568-.49256.22568-.49256c.29554-.68308.64781-1.24962 1.08786-1.68305.44006-.43343 1.03444-.76927 1.72403-1.00568.52841-.17442 1.10556-.29017 1.72403-.3283zm10.40571 0c.0927-.0114.19394 0 .28732 0 .5977 0 1.15761.17979 1.68305.5541 0 0 .30786.22579.30786.22579s-1.27256 2.09342-1.27256 2.09342-.34884-.24634-.34884-.24634c-.25616-.16415-.51814-.24622-.80043-.24622-.24965 0-.49599.0887-.73891.24622-.24965.16427-.43103.38184-.59518.67738-.26929.50569-.47784 1.07211-.61574 1.68293 0 0-1.12884 5.04892-1.12884 5.04892h-2.38086s2.19616-9.8515 2.19616-9.8515h2.2166s-.0558.29874-.0821.41038c.10502-.0788.20936-.1871.30787-.24623.313-.18983.63377-.30832.96458-.34885zm7.03983 0c.14315-.0109.28447 0 .43093 0 1.33991 0 2.36031.46951 3.01713 1.39562.42031.59758.63617 1.33649.63617 2.21659 0 .48595-.0804 1.00899-.20524 1.58032 0 0-.16415.71835-.16415.71835s-6.02754 0-6.69088 0c-.0131.1379-.0411.28572-.0411.41049 0 .51231.11175.91538.32841 1.21092.0338.046.086.10274.12317.14372.0216.0229.0594.0607.0821.0821.2936.26689.69325.41049 1.19038.41049.48605 0 .91298-.1339 1.31354-.38994.38104-.24303.7389-.63137 1.06731-1.16994h2.56556s-.24634.49256-.24634.49256c-.48606.98524-1.17074 1.7536-2.01135 2.29879-.85385.54507-1.85291.84141-2.97604.84141-1.45144 0-2.51134-.46951-3.18118-1.39562-.66333-.90636-.82017-2.15917-.47213-3.73538.35467-1.60257 1.04186-2.88324 2.07299-3.77647.93-.80135 1.99457-1.24585 3.16074-1.33398zm-35.93785.1847h2.44239s.30124 5.84604.30786 5.93143c.0985-.20936.175-.38549.1847-.41049 0 0 2.68872-5.52094 2.68872-5.52094h2.23714s.20525 5.77538.20525 5.80826c.0656-.11815 3.058-5.80826 3.058-5.80826h2.42184s-5.33624 9.8515-5.33624 9.8515h-2.19604s-.21267-5.34194-.2258-5.6441c-.90636 1.85872-2.75025 5.6441-2.75025 5.6441h-2.25769s-.77988-9.8515-.77988-9.8515zm-57.34448 1.86763c-.56575.0239-1.07959.22785-1.55984.61574-.38091.30216-.63789.71675-.84148 1.16982 0 .00012 4.04324 0 4.04324 0 .007-.0721.0205-.16004.0205-.22568 0-.37441-.0665-.66504-.18472-.86207-.28894-.47281-.7175-.69781-1.35459-.69781-.0382 0-.0854-.002-.12313 0zm10.69306 0c-.56574.0239-1.07953.22785-1.55983.61574-.38091.30216-.6313.71675-.84148 1.16982 0 .00012 4.04326 0 4.04326 0 .007-.0721.0206-.16004.0206-.22568 0-.37441-.0599-.66504-.1847-.86207-.0574-.096-.13504-.19154-.20524-.26677-.27431-.28332-.65169-.43104-1.14939-.43104-.0382 0-.0854-.002-.12317 0zm82.71244 0c-.58183.0179-1.12519.21495-1.62152.61574-.3743.30216-.63126.71675-.84141 1.16982 0 .00012 4.0227 0 4.0227 0 .007-.0721.0206-.16004.0206-.22568 0-.37441-.0599-.66504-.1847-.86207-.28241-.46631-.71756-.69119-1.35464-.69781-.0188.00023-.0223-.00057-.041 0zm-53.77333.0411c-.54291.0644-1.0478.3122-1.51879.73879-.56482.51231-.97451 1.31685-1.21092 2.38085-.0985.44656-.14371.8284-.14371 1.16983 0 .46631.0895.8325.26688 1.10829.0471.0709.10982.14566.16415.20525.292.31003.69964.47213 1.21092.47213.66334 0 1.24791-.24714 1.80611-.75945.56482-.51882.96789-1.33158 1.21092-2.42184.22328-.99825.19211-1.74366-.12317-2.21659-.30205-.45969-.74381-.67726-1.35453-.67726-.10364 0-.20729-.012-.30786 0zm37.08713 3.59166c-.5582.15114-1.18387.2783-2.01135.39006-.61733.0919-1.05739.1888-1.31354.28731-.22328.0919-.40307.21918-.55421.38995-.1444.16415-.24131.33651-.28732.53365-.0131.0788-.0205.16004-.0205.22568 0 .005-.00012.0153 0 .0205.00068.0156-.002.0465 0 .0616.004.0297.0124.0748.0205.10251.003.009.0171.0322.0205.0411.007.0177.0116.0448.0206.0616.009.0166.03.0455.041.0615.0172.0236.0406.0599.0616.0821.16415.1839.49176.26677.96458.26677.51893 0 1.018-.0985 1.4778-.3283.45319-.22339.81847-.55672 1.08775-.94415.19703-.27579.35467-.70032.49257-1.25201zm-125.364659-16.45612 55.082599-56.87199h8.99518l-13.2998 56.87199h-7.398629l3.776339-16.37106h-23.091518l-15.692032 16.37106zm29.675679-22.22896h18.88598l3.48449-14.27618c1.40629-5.66388 2.75996-10.38381 4.06102-14.1598-2.60007 3.25873-6.04001 7.1252-10.31982 11.59939l-16.11167 16.83654" fill="#636"/><path d="m242.27371 772.00406c.26666.68537.5332 1.3697.81093 2.03897.42773.90933.922 1.77974 1.51639 2.59227 3.21051 4.36413 8.58716 6.75366 15.41353 7.34862h7.34302c2.32173-.18116 4.75464-.51882 7.27636-1.01207 4.34906-.85043 8.95929-2.15678 13.74726-3.90261 3.62705-1.32245 7.3541-2.88712 11.13662-4.70567 8.23729-3.94873 16.74671-9.04148 25.09506-15.18751 2.74946-2.02242 5.38772-4.09758 7.92063-6.20767 2.32173-1.93179 4.54905-3.89371 6.67649-5.8772 5.93759-5.72219 10.42009-11.53376 12.95848-16.63667 2.64386-5.31398 3.17158-9.85744 1.00533-12.71967-1.32747-1.7569-3.54931-2.69843-6.40983-2.91999 12.88633-9.6692 20.3959-21.3985 17.70204-28.79369-.85545-2.36008-2.73838-4.12086-5.43784-5.09458-1.19973-.43149-2.54946-.70488-4.02144-.82931h-3.96585c-5.53772.39942-13.59076 2.38234-20.42273 5.73052" fill="none" stroke="#636" stroke-width="3.283865"/></g><g fill="#636" transform="matrix(1.705222 0 0 1.705222 769.952343 1025.2579)"><path d="m0 36h7.46s3.35-14 3.35-14h12.12s1.56-6 1.56-6h-12.17s2.02-9 2.02-9h12.95s1.56-7 1.56-7h-20.45s-8.4 36-8.4 36z" transform="translate(-451.3678 -427.5077)"/><path d="m7.51 26s2.24-9.4 2.24-9.4c1.18-5.09 3.67-9.6 8.38-9.6.42 0 .83.21 1.14.26 0 0 1.82-7.21 1.82-7.21-.42 0-.88-.05-1.4-.05-3.47 0-6.38 2.44-8.32 5.94h-.2c.29-1.71.54-3.33.73-4.94h-6.43c-.37 2.08-.94 6.15-1.81 9.82 0 0-3.66 15.18-3.66 15.18z" transform="translate(-425.4178 -417.5077)"/><path d="m20.06 19.25c-2.07 1.01-4.43.75-7.18.75-2.17 0-3.85-.38-4.77-1.12-.48-.81-.68-2.07-.64-2.88 10.13.27 16.52-2.07 16.84-8.47.24-4.83-3.29-7.53-8.42-7.53-9.16 0-15.16 8.08-15.55 15.86-.34 6.79 3.18 10.14 10.44 10.14 2.79 0 6.49-.32 9.52-1.23 0 0-.24-5.52-.24-5.52zm-2.74-11.72c-.12 2.38-3.06 2.52-8.85 2.47.63-2.09 2.75-4 6.22-4 1.71 0 2.69.65 2.63 1.53z" transform="translate(-404.7878 -417.5077)"/><path d="m20.05 19.25c-2.07 1.01-4.43.75-7.17.75-2.18 0-3.85-.38-4.77-1.12-.48-.81-.69-2.07-.65-2.88 10.14.27 16.52-2.07 16.85-8.47.24-4.83-3.29-7.53-8.42-7.53-9.17 0-15.17 8.08-15.56 15.86-.33 6.79 3.19 10.14 10.44 10.14 2.8 0 6.5-.32 9.53-1.23 0 0-.25-5.52-.25-5.52zm-2.73-11.72c-.12 2.38-3.06 2.52-8.86 2.47.64-2.09 2.75-4 6.22-4 1.71 0 2.7.65 2.64 1.53z" transform="translate(-378.2678 -417.5077)"/><path d="m22.74 26c.06-3.17.82-8.15 1.61-11.42 0 0 3.21-13.58 3.21-13.58-2.04-.69-5.22-1-8.28-1-12.42 0-18.58 9.2-19.01 17.82-.27 5.41 2.66 8.18 7.22 8.18 2.95 0 6.28-1.43 8.87-5.73h.11c-.2 2.07-.44 4.08-.57 5.73zm-5.13-14.28c-1.46 6.36-4.44 8.28-6.66 8.28-2.07 0-2.97-1.47-2.85-3.61.24-4.83 4.06-10.39 8.88-10.39.78 0 1.39-.14 1.96-.28 0 0-1.33 6-1.33 6z" transform="translate(-342.3578 -417.5077)"/><path d="m0 24.82c1.44 1.12 4.46 1.13 7.61 1.18 6.73.05 11.81-2.89 12.11-8.29.17-3.6-2.62-5.73-5.35-7.16-1.97-.95-2.96-1.86-2.91-2.92.07-1.43 1.41-1.63 3.38-1.63 2.22 0 4 .27 5.02.47 0 0 2.02-5.42 2.02-5.42-1.15-.69-3.45-1.05-6.4-1.05-6.53 0-11.31 3.45-11.58 8.69-.16 3.24 2.17 5.42 4.99 6.9 2.28 1.17 3.06 2.07 3 3.34-.07 1.28-1.21 1.07-3.28 1.07-2.43 0-5.12-.32-6.54-.54 0 0-2.07 5.36-2.07 5.36z" transform="translate(-314.7278 -417.5077)"/><path d="m7.45 37s6.05-25 6.05-25h-7.41s-6.09 25-6.09 25zm3.47-28c2.54 0 4.8-2.1 4.94-5.7.12-2.44-1.46-3.3-3.79-3.3-2.43 0-4.65 1.58-4.78 3.94-.12 2.38 1.46 5.06 3.63 5.06z" transform="translate(-282.2778 -428.5077)"/><path d="m7.46 25.31s2.64-11.26 2.64-11.26c1.37-5.73 4.32-7.74 6.75-7.74 1.92 0 2.48.82 2.39 2.01-.05.96-.2 1.97-.4 2.87 0 0-3.36 14.12-3.36 14.12h7.46s3.54-14.81 3.54-14.81c.27-1.28.57-3.19.63-4.35.22-4.51-2.03-6.15-6.17-6.15-3.32 0-6.55 1.54-9.1 4.88h-.1s.68-4.57.68-4.57h-6.58c-.43 2.14-.98 4.73-1.76 7.75 0 0-4.08 17.25-4.08 17.25z" transform="translate(-267.9878 -416.8177)"/><path d="m0 36h7.46s3.36-14 3.36-14h12.11s1.56-6 1.56-6h-12.17s2.02-9 2.02-9h12.95s1.56-7 1.56-7h-20.45s-8.4 36-8.4 36z" transform="translate(-228.4278 -427.5077)"/><path d="m7.51 26s2.24-9.4 2.24-9.4c1.18-5.09 3.67-9.6 8.38-9.6.42 0 .83.21 1.14.26 0 0 1.82-7.21 1.82-7.21-.42 0-.88-.05-1.4-.05-3.47 0-6.38 2.44-8.32 5.94h-.2c.29-1.71.54-3.33.73-4.94h-6.43c-.36 2.08-.94 6.15-1.81 9.82 0 0-3.66 15.18-3.66 15.18z" transform="translate(-202.4778 -417.5077)"/><path d="m20.06 19.25c-2.07 1.01-4.43.75-7.18.75-2.17 0-3.85-.38-4.77-1.12-.48-.81-.68-2.07-.64-2.88 10.13.27 16.52-2.07 16.84-8.47.24-4.83-3.29-7.53-8.42-7.53-9.16 0-15.16 8.08-15.55 15.86-.34 6.79 3.19 10.14 10.44 10.14 2.79 0 6.5-.32 9.52-1.23 0 0-.24-5.52-.24-5.52zm-2.74-11.72c-.12 2.38-3.06 2.52-8.85 2.47.63-2.09 2.75-4 6.22-4 1.71 0 2.69.65 2.63 1.53z" transform="translate(-181.8478 -417.5077)"/><path d="m20.05 19.25c-2.07 1.01-4.43.75-7.17.75-2.18 0-3.85-.38-4.77-1.12-.48-.81-.69-2.07-.65-2.88 10.14.27 16.52-2.07 16.85-8.47.24-4.83-3.29-7.53-8.42-7.53-9.17 0-15.17 8.08-15.56 15.86-.33 6.79 3.19 10.14 10.44 10.14 2.8 0 6.5-.32 9.53-1.23 0 0-.25-5.52-.25-5.52zm-2.73-11.72c-.12 2.38-3.06 2.52-8.86 2.47.64-2.09 2.75-4 6.22-4 1.71 0 2.7.65 2.64 1.53z" transform="translate(-155.3278 -417.5077)"/><path d="m23.31 0s-2.81 11.36-2.81 11.36c-1.02-.42-2.35-.36-3.39-.36-9.58 0-16.36 8.2-16.81 17.08-.3 6.26 3.04 8.92 7.34 8.92 3.01 0 6.18-1.33 8.58-4.77h.1s-.57 4.77-.57 4.77h6.78c.31-3 .96-6.57 1.69-9.83 0 0 6.49-27.17 6.49-27.17zm-5.84 24.42c-1.17 4.93-3.93 6.58-6.11 6.58-2.17 0-3.38-1.51-3.23-4.2.25-4.98 3.67-9.8 8.12-9.8 1.25 0 2.32.19 2.91.47 0 0-1.69 6.95-1.69 6.95z" transform="translate(-128.9478 -428.5077)"/><path d="m10.61 26c8.7 0 15.41-6.59 15.88-15.56.29-5.94-3.41-10.44-10.24-10.44-9.02 0-15.49 7.3-15.94 16.12-.31 6.42 3.83 9.88 10.3 9.88zm1.17-6c-2.54 0-3.94-1.62-3.79-4.04.2-4.03 2.69-9.96 6.98-9.96 2.96 0 3.87 2.27 3.75 4.5-.22 4.4-2.9 9.5-6.94 9.5z" transform="translate(-99.2378 -417.5077)"/><path d="m7.2 26s2.7-11.42 2.7-11.42c1.13-5.09 3.95-8.58 6.48-8.58 1.82 0 2.32 1.33 2.23 3.07-.05.9-.25 1.91-.46 2.91 0 0-3.34 14.02-3.34 14.02h7.2s2.7-11.47 2.7-11.47c1.24-5.25 3.9-8.53 6.38-8.53 1.71 0 2.42 1.22 2.34 2.96-.05 1.01-.26 2.12-.52 3.13 0 0-3.24 13.91-3.24 13.91h7.25s3.49-14.81 3.49-14.81c.27-1.33.58-3.4.63-4.46.22-4.4-1.93-6.73-5.81-6.73-3.32 0-6.55 1.5-9 4.66-.09-2.28-1.72-4.66-5.76-4.66-3.27 0-6.39 1.48-8.89 4.83h-.1s.67-3.83.67-3.83h-6.42c-.42 2.14-.93 4.73-1.71 7.75 0 0-4.02 17.25-4.02 17.25z" transform="translate(-70.6778 -417.5077)"/></g></svg>