<svg clip-rule="evenodd" fill-rule="evenodd" stroke-linecap="round" stroke-linejoin="round" stroke-miterlimit="1.5"
     viewBox="0 0 1024 1024" xmlns="http://www.w3.org/2000/svg" height="32px" class="panopticonLogoColour"><style>path.main{fill:black} path.w{fill:#73888c}</style><g transform="matrix(1.57407 0 0 1.57407 -168 -340)"><path d="m288.263 432h-.263v-12h36l-36-156s64.524-48 144-48 144 48 144 48l-36 156h36v24h-29.167l17.308 420h-266.823l19.849-420h-28.904z" class="main"/><path d="m348 276v134h-15l-30.288-134z" class="w"/><path d="m348 276v134h-15l-30.288-134z" class="w" transform="matrix(-1 0 0 1 864 0)"/><path d="m518.4 276h-172.8l14.4 134h144z" class="w" transform="matrix(.833333 0 0 1 72 0)"/></g></svg>